<svg width="1434" height="256" viewBox="0 0 1434 256" fill="none" xmlns="http://www.w3.org/2000/svg">
<path d="M1101.8 255.74H1069.25C1051.21 255.74 1036.98 253.344 1026.56 248.553C1016.13 243.481 1008.66 235.59 1004.15 224.882C999.643 214.173 997.388 200.224 997.388 183.033V90.0372H963.572V52.8387H997.388V0H1037.68V76.1544H1039.61L1054.58 52.8387H1098.55V90.0372H1037.68V182.611C1037.68 195.856 1041.53 205.155 1046.89 210.51C1052.52 215.864 1061.22 218.541 1072.21 218.541H1101.8V255.74Z" fill="#292B32"/>
<path d="M0.384399 251.483V47.1358H40.828V88.4309H33.165C36.287 78.7812 41.3957 70.6925 48.491 64.1647C55.5864 57.3532 63.8171 52.1026 73.183 48.413C82.8327 44.7234 93.05 42.8786 103.835 42.8786C117.458 42.8786 129.236 45.1491 139.17 49.6902C149.103 54.2312 157.05 60.4751 163.01 68.422C168.971 76.085 172.944 84.7413 174.931 94.391H163.862C166.984 83.0384 172.376 73.5306 180.039 65.8676C187.986 58.2046 197.21 52.5283 207.711 48.8387C218.212 44.8653 229.139 42.8786 240.492 42.8786C255.534 42.8786 268.59 45.7168 279.658 51.3931C290.727 56.7855 299.242 65.0162 305.202 76.0849C311.446 86.8699 314.568 100.209 314.568 116.103V251.483H273.273V123.34C273.273 110.001 269.725 99.3578 262.629 91.411C255.534 83.4641 244.323 79.4907 228.997 79.4907C214.807 79.4907 202.745 84.0318 192.811 93.1139C183.161 101.912 178.336 113.69 178.336 128.449V251.483H136.616V123.34C136.616 110.001 133.068 99.3578 125.973 91.411C118.877 83.4641 107.666 79.4907 92.3405 79.4907C78.1497 79.4907 66.2295 84.0318 56.5798 93.1139C46.9301 101.912 42.1052 113.69 42.1052 128.449V251.483H0.384399Z" fill="#292B32"/>
<path d="M483.045 162.932C475.382 162.365 467.151 162.081 458.353 162.081C449.555 162.081 440.615 162.365 431.533 162.932C418.761 163.5 408.969 166.338 402.158 171.447C395.346 176.272 391.94 183.225 391.94 192.307C391.94 201.389 395.062 208.768 401.306 214.445C407.834 219.837 416.632 222.534 427.701 222.534C443.595 222.534 456.792 218.702 467.293 211.039C477.794 203.376 483.045 193.301 483.045 180.813V162.932ZM483.897 251.483V216.999L490.282 217.851C484.606 229.203 475.95 238.427 464.313 245.523C452.961 252.334 438.912 255.74 422.167 255.74C407.692 255.74 395.062 253.469 384.277 248.928C373.776 244.103 365.546 237.15 359.586 228.068C353.625 218.702 350.645 207.775 350.645 195.287C350.645 174.001 357.599 158.533 371.506 148.884C385.697 139.234 404.57 133.841 428.127 132.706C438.06 132.138 447.71 131.997 457.076 132.28C466.726 132.564 475.382 132.848 483.045 133.132V116.954C483.045 103.331 479.497 93.3977 472.402 87.1537C465.307 80.626 455.657 77.3621 443.453 77.3621C429.83 77.3621 419.187 80.7679 411.524 87.5795C404.145 94.1072 399.036 102.338 396.198 112.271L357.883 104.608C362.14 85.5927 371.506 70.5506 385.98 59.4818C400.739 48.413 419.896 42.8786 443.453 42.8786C459.347 42.8786 473.253 45.4329 485.174 50.5416C497.094 55.6503 506.318 63.5971 512.846 74.3821C519.657 84.8832 523.063 98.6483 523.063 115.677V251.483H483.897Z" fill="#292B32"/>
<path d="M591.207 128.449H714.667L708.281 140.369C708.281 139.234 708.281 137.815 708.281 136.112C708.281 134.409 708.281 132.99 708.281 131.855C708.281 116.245 703.74 103.189 694.658 92.6881C685.86 82.187 673.088 76.9364 656.343 76.9364C639.314 76.9364 625.549 82.3289 615.048 93.1139C604.831 103.615 599.154 119.367 598.019 140.369L591.207 128.449ZM746.596 158.675H591.207L598.019 150.161C598.019 150.444 598.019 150.728 598.019 151.012C598.019 151.296 598.019 151.722 598.019 152.289C598.019 174.994 602.986 192.165 612.919 203.802C623.137 215.438 636.76 221.256 653.789 221.256C668.547 221.256 680.041 217.851 688.272 211.039C696.503 203.944 702.321 195.855 705.727 186.773L741.913 194.01C739.075 205.363 733.824 215.722 726.161 225.088C718.782 234.454 708.991 241.975 696.787 247.651C684.583 253.044 670.108 255.74 653.363 255.74C634.915 255.74 618.454 251.766 603.979 243.82C589.788 235.873 578.578 224.094 570.347 208.485C562.4 192.591 558.427 172.866 558.427 149.309C558.427 125.753 562.684 106.169 571.198 90.5595C579.997 74.6659 591.775 62.7456 606.533 54.7988C621.576 46.852 638.179 42.8786 656.343 42.8786C674.507 42.8786 690.401 46.7101 704.024 54.3731C717.647 62.0361 728.148 73.1049 735.527 87.5795C743.19 102.054 747.022 119.509 747.022 139.943C747.022 143.633 747.022 147.181 747.022 150.586C747.022 153.708 746.88 156.405 746.596 158.675Z" fill="#292B32"/>
<path d="M770.077 193.159L808.392 187.199C811.514 198.835 817.19 207.633 825.421 213.593C833.935 219.27 845.288 222.108 859.479 222.108C874.237 222.108 885.164 219.837 892.259 215.296C899.355 210.471 902.902 204.086 902.902 196.139C902.902 187.908 900.064 181.806 894.388 177.833C888.995 173.575 879.346 170.312 865.439 168.041L838.193 162.932C818.893 159.527 803.851 153.425 793.066 144.626C782.281 135.828 776.888 122.489 776.888 104.608C776.888 91.8367 780.294 80.9098 787.106 71.8277C793.917 62.4618 803.425 55.3665 815.629 50.5416C828.117 45.4329 842.308 42.8786 858.201 42.8786C882.893 42.8786 902.193 48.5549 916.1 59.9075C930.29 71.2601 938.947 85.167 942.069 101.628L904.605 109.717C902.051 100.351 897.226 92.5462 890.131 86.3023C883.035 79.7745 872.108 76.5107 857.35 76.5107C844.295 76.5107 834.077 78.9231 826.698 83.748C819.603 88.5728 816.055 94.9586 816.055 102.905C816.055 111.42 819.177 117.38 825.421 120.786C831.665 124.192 840.463 126.888 851.816 128.875L878.21 133.557C900.064 137.531 916.1 144.342 926.317 153.992C936.818 163.642 942.069 176.981 942.069 194.01C942.069 206.214 938.947 216.999 932.703 226.365C926.459 235.731 917.093 242.968 904.605 248.077C892.117 253.186 876.649 255.74 858.201 255.74C842.024 255.74 827.691 253.469 815.204 248.928C803 244.387 793.066 237.576 785.403 228.494C777.74 219.128 772.631 207.349 770.077 193.159Z" fill="#292B32"/>
<path d="M1136.72 251.483V47.1358H1176.32V85.4509H1171.21C1175.46 74.9497 1181.14 67.0029 1188.24 61.6104C1195.33 56.2179 1202.99 52.5283 1211.22 50.5416C1219.45 48.2711 1227.26 47.1358 1234.64 47.1358H1252.09V85.8766H1235.49C1226.41 85.8766 1217.47 87.1537 1208.67 89.7081C1200.16 91.9786 1192.92 95.6682 1186.96 100.777C1181.28 105.886 1178.44 112.555 1178.44 120.786V251.483H1136.72Z" fill="#292B32"/>
<path d="M1393.21 162.932C1385.54 162.365 1377.31 162.081 1368.52 162.081C1359.72 162.081 1350.78 162.365 1341.69 162.932C1328.92 163.5 1319.13 166.338 1312.32 171.447C1305.51 176.272 1302.1 183.225 1302.1 192.307C1302.1 201.389 1305.22 208.768 1311.47 214.445C1318 219.837 1326.79 222.534 1337.86 222.534C1353.76 222.534 1366.95 218.702 1377.46 211.039C1387.96 203.376 1393.21 193.301 1393.21 180.813V162.932ZM1394.06 251.483V216.999L1400.44 217.851C1394.77 229.203 1386.11 238.427 1374.48 245.523C1363.12 252.334 1349.07 255.74 1332.33 255.74C1317.85 255.74 1305.22 253.469 1294.44 248.928C1283.94 244.103 1275.71 237.15 1269.75 228.068C1263.79 218.702 1260.81 207.775 1260.81 195.287C1260.81 174.001 1267.76 158.533 1281.67 148.884C1295.86 139.234 1314.73 133.841 1338.29 132.706C1348.22 132.138 1357.87 131.997 1367.24 132.28C1376.89 132.564 1385.54 132.848 1393.21 133.132V116.954C1393.21 103.331 1389.66 93.3977 1382.56 87.1537C1375.47 80.626 1365.82 77.3621 1353.62 77.3621C1339.99 77.3621 1329.35 80.7679 1321.69 87.5795C1314.31 94.1072 1309.2 102.338 1306.36 112.271L1268.04 104.608C1272.3 85.5927 1281.67 70.5506 1296.14 59.4818C1310.9 48.413 1330.06 42.8786 1353.62 42.8786C1369.51 42.8786 1383.42 45.4329 1395.34 50.5416C1407.26 55.6503 1416.48 63.5971 1423.01 74.3821C1429.82 84.8832 1433.23 98.6483 1433.23 115.677V251.483H1394.06Z" fill="#292B32"/>
</svg>
